<svg width="58" height="58" viewBox="0 0 58 58" fill="none" xmlns="http://www.w3.org/2000/svg">
<path d="M21.3852 0.5C18.2383 0.5 15.6926 3.05313 15.6926 6.2C15.6926 7.70664 16.2937 9.16133 17.3551 10.2301C18.4238 11.2988 19.8711 11.9 21.3852 11.9H27.0777V6.2C27.0777 3.06055 24.532 0.507422 21.3852 0.5ZM21.3852 15.7H6.19258C3.0457 15.7 0.5 18.2531 0.5 21.4C0.5 24.5469 3.05312 27.1 6.19258 27.1H21.3777C24.5246 27.1 27.0703 24.5469 27.0703 21.4C27.0777 18.2531 24.5246 15.7 21.3852 15.7ZM36.5703 27.1C39.7172 27.1 42.2703 24.5469 42.2629 21.4V6.2C42.2629 3.05313 39.7172 0.5 36.5703 0.5C33.4234 0.5 30.8777 3.05313 30.8777 6.2V21.4C30.8777 24.5543 33.4234 27.1 36.5703 27.1V27.1ZM57.4555 21.4C57.4555 18.2531 54.9023 15.7 51.7629 15.7C48.6234 15.7 46.0703 18.2531 46.0703 21.4V27.1H51.7629C54.9023 27.1 57.4555 24.5469 57.4555 21.4V21.4ZM51.7555 30.9H36.5703C33.4234 30.9 30.8777 33.4531 30.8777 36.6C30.8777 38.1066 31.4789 39.5613 32.5402 40.6301C33.609 41.6988 35.0562 42.3 36.5703 42.3H51.7555C54.9023 42.3 57.448 39.7469 57.448 36.6C57.4555 33.4531 54.9023 30.9074 51.7555 30.9V30.9ZM36.5703 46.1H30.8777V51.8C30.8777 54.9469 33.4309 57.5 36.5703 57.5C39.7172 57.5 42.2703 54.9469 42.2629 51.8C42.2703 48.6531 39.7172 46.1074 36.5703 46.1ZM21.3852 30.9C18.2383 30.9 15.6926 33.4531 15.6926 36.6V51.8C15.6926 54.9469 18.2457 57.5 21.3852 57.5C24.532 57.5 27.0852 54.9469 27.0777 51.8V36.6C27.0777 35.0934 26.4766 33.6387 25.4152 32.5699C24.3465 31.5012 22.8918 30.9 21.3852 30.9ZM0.5 36.6C0.5 38.1066 1.10117 39.5613 2.1625 40.6301C3.23125 41.6988 4.67852 42.3 6.19258 42.3C9.33945 42.3 11.8926 39.7469 11.8852 36.6V30.9H6.19258C3.05312 30.9 0.5 33.4531 0.5 36.6V36.6Z" fill="#5B5F77"/>
</svg>
