<svg width="155" height="44" viewBox="0 0 155 44" fill="none" xmlns="http://www.w3.org/2000/svg">
<g clipPath="url(#clip0_3048_82)">
<path d="M48.3497 20.5299C50.434 20.5299 52.1057 22.2016 52.1057 24.2858C52.1057 26.3701 50.434 28.0418 48.3497 28.0418C46.2655 28.0418 44.5938 26.3701 44.5938 24.2858C44.5938 23.5911 44.7892 22.918 45.1148 22.3536L40.5122 14.8417C40.4253 14.8417 40.3385 14.8417 40.2516 14.8417C40.0997 14.8417 39.9694 14.8417 39.8174 14.82L32.0016 26.3049C32.2838 26.826 32.4358 27.4339 32.4358 28.0635C32.4358 30.1477 30.7641 31.8194 28.6798 31.8194C26.5956 31.8194 24.9239 30.1477 24.9239 28.0635C24.9239 27.5424 25.0324 27.0648 25.2061 26.6089L19.8436 20.1391C19.6048 20.2042 19.3442 20.2259 19.0837 20.2259C18.9752 20.2259 18.8449 20.2259 18.7363 20.2042L7.03427 38.2675C7.33822 38.8103 7.5119 39.4399 7.5119 40.1129C7.5119 42.1972 5.81847 43.8689 3.75595 43.8689C1.69343 43.8689 0 42.1972 0 40.1129C0 38.0287 1.69343 36.357 3.75595 36.357C3.86451 36.357 3.99477 36.357 4.10332 36.3787L15.8054 18.3154C15.5014 17.7726 15.3278 17.143 15.3278 16.47C15.3278 14.3857 16.9995 12.714 19.0837 12.714C21.1679 12.714 22.8397 14.3857 22.8397 16.47C22.8397 16.991 22.7311 17.4687 22.5574 17.9246L27.92 24.4161C28.1805 24.3727 28.441 24.3292 28.7016 24.3292C28.8535 24.3292 28.9838 24.3292 29.1358 24.351L36.9516 12.866C36.6694 12.3449 36.5174 11.737 36.5174 11.1074C36.5174 9.0232 38.1891 7.35147 40.2734 7.35147C42.3576 7.35147 44.0293 9.0232 44.0293 11.1074C44.0293 11.8022 43.8339 12.4752 43.5083 13.0397L48.1326 20.5516C48.1761 20.5299 48.2629 20.5299 48.3497 20.5299ZM40.7944 29.4747C41.1852 28.5845 42.2056 28.1938 43.0957 28.5845C43.9859 28.9753 44.3767 29.9957 43.9859 30.8859C42.249 34.7938 39.4266 38.0938 35.8661 40.3952C32.4358 42.6314 28.3325 43.934 23.9252 43.934C21.6022 43.934 19.3659 43.5649 17.2383 42.8919C15.0455 42.1972 13.0264 41.155 11.2027 39.8524C10.4211 39.2879 10.2257 38.2024 10.7902 37.4208C11.3547 36.6392 12.4402 36.4438 13.2218 37.0083C14.7633 38.1155 16.4784 38.984 18.3021 39.5702C20.0607 40.1346 21.9495 40.4386 23.9252 40.4386C27.6377 40.4386 31.0897 39.3531 33.9772 37.4642C36.9516 35.532 39.3398 32.753 40.7944 29.4747ZM6.36124 27.6293C6.64348 28.5411 6.14413 29.5181 5.23228 29.8221C4.32043 30.1043 3.34345 29.6049 3.0395 28.6931C2.69213 27.6293 2.4316 26.522 2.25791 25.4148C2.08423 24.2858 1.99738 23.1569 1.99738 22.0279C1.99738 15.9706 4.45069 10.4995 8.42375 6.52647C12.3968 2.55341 17.8679 0.100098 23.9252 0.100098C26.2265 0.100098 28.4627 0.46918 30.5687 1.1205C32.718 1.79353 34.7371 2.81394 36.5825 4.11658C37.3641 4.65935 37.5595 5.74488 36.995 6.54818C36.4523 7.32976 35.3667 7.52516 34.5634 6.96068C33.0437 5.89686 31.3503 5.02843 29.5048 4.46395C27.7463 3.89947 25.8792 3.59552 23.9252 3.59552C18.8449 3.59552 14.2205 5.65804 10.8988 9.00149C7.55532 12.3449 5.49281 16.9476 5.49281 22.0279C5.49281 23.0266 5.55794 23.9819 5.70992 24.872C5.86189 25.8273 6.079 26.7391 6.36124 27.6293Z" fill="#29313D" fillOpacity="0.8"/>
<path d="M62.1577 14.581C62.9827 13.1698 64.1116 12.0843 65.5228 11.281C66.934 10.4994 68.4972 10.0869 70.1689 10.0869C72.1012 10.0869 73.8163 10.5645 75.3144 11.4981C76.8124 12.4534 77.8979 13.7777 78.5927 15.5146H75.0321C74.5545 14.5593 73.9032 13.8429 73.0782 13.3869C72.2532 12.9093 71.2762 12.6922 70.1906 12.6922C68.9966 12.6922 67.9327 12.9527 66.9775 13.4955C66.0439 14.0383 65.3057 14.7981 64.7847 15.8185C64.2636 16.8172 63.9814 17.9896 63.9814 19.3357C63.9814 20.6817 64.2419 21.8541 64.7847 22.8528C65.3274 23.8515 66.0439 24.6331 66.9775 25.1759C67.911 25.7186 68.9748 26.0009 70.1906 26.0009C71.2762 26.0009 72.2532 25.762 73.0782 25.3061C73.9032 24.8502 74.5545 24.1337 75.0321 23.1785H78.5927C77.9197 24.9153 76.8341 26.2614 75.3144 27.1949C73.8163 28.1285 72.1012 28.6061 70.1689 28.6061C68.4755 28.6061 66.9123 28.2154 65.5011 27.4121C64.0899 26.6305 62.9827 25.5232 62.1577 24.112C61.3327 22.7008 60.9202 21.116 60.9202 19.3357C60.9202 17.5554 61.3327 15.9922 62.1577 14.581Z" fill="#29313D" fillOpacity="0.8"/>
<path d="M86.7559 14.4508C87.4724 14.0383 88.3408 13.8429 89.3178 13.8429V16.9258H88.5579C87.3855 16.9258 86.5171 17.2298 85.9092 17.816C85.3013 18.4021 85.019 19.4225 85.019 20.8989V28.4542H82.0447V14.0817H85.019V16.1659C85.4533 15.4278 86.0394 14.8633 86.7559 14.4508Z" fill="#29313D" fillOpacity="0.8"/>
<path d="M105.102 22.3753H94.1376C94.2245 23.526 94.6587 24.4379 95.4185 25.1326C96.1784 25.8273 97.112 26.1747 98.2409 26.1747C99.8475 26.1747 100.976 25.5017 101.628 24.1773H104.841C104.407 25.5017 103.625 26.5872 102.475 27.4122C101.346 28.2589 99.9344 28.6714 98.2409 28.6714C96.8732 28.6714 95.6356 28.3675 94.5501 27.7379C93.4646 27.13 92.6179 26.2616 91.9882 25.1326C91.3586 24.0036 91.0547 22.7227 91.0547 21.2464C91.0547 19.7701 91.3586 18.4674 91.9448 17.3602C92.5527 16.2312 93.3777 15.3845 94.4633 14.7766C95.5488 14.1687 96.7863 13.8647 98.1975 13.8647C99.5436 13.8647 100.759 14.1687 101.823 14.7549C102.887 15.3411 103.712 16.1661 104.298 17.2516C104.884 18.3154 105.188 19.553 105.188 20.9424C105.21 21.4418 105.167 21.9194 105.102 22.3753ZM102.105 19.9655C102.084 18.8799 101.693 17.9898 100.933 17.3385C100.173 16.6871 99.2179 16.3398 98.089 16.3398C97.0686 16.3398 96.1784 16.6654 95.462 17.3167C94.7238 17.9681 94.2896 18.8582 94.1593 19.9655H102.105Z" fill="#29313D" fillOpacity="0.8"/>
<path d="M110.681 27.7377C109.596 27.1298 108.727 26.2614 108.098 25.1325C107.468 24.0035 107.164 22.7226 107.164 21.2462C107.164 19.7916 107.49 18.489 108.119 17.36C108.771 16.2311 109.639 15.3626 110.746 14.7547C111.854 14.1468 113.091 13.8429 114.481 13.8429C115.87 13.8429 117.086 14.1468 118.215 14.7547C119.322 15.3626 120.212 16.2311 120.842 17.36C121.471 18.489 121.797 19.7916 121.797 21.2462C121.797 22.7009 121.471 24.0035 120.798 25.1325C120.147 26.2614 119.235 27.1298 118.106 27.7595C116.977 28.3674 115.718 28.693 114.35 28.693C113.004 28.6713 111.767 28.3674 110.681 27.7377ZM116.5 25.545C117.173 25.1759 117.715 24.6331 118.128 23.895C118.54 23.1568 118.758 22.2884 118.758 21.2462C118.758 20.2041 118.562 19.314 118.15 18.5975C117.759 17.8811 117.238 17.3383 116.565 16.9692C115.913 16.6002 115.197 16.4265 114.437 16.4265C113.677 16.4265 112.961 16.6002 112.309 16.9692C111.658 17.3383 111.137 17.8811 110.768 18.5975C110.377 19.314 110.204 20.2041 110.204 21.2462C110.204 22.7877 110.594 23.9818 111.398 24.8285C112.179 25.6752 113.178 26.0877 114.372 26.0877C115.11 26.0877 115.827 25.914 116.5 25.545Z" fill="#29313D" fillOpacity="0.8"/>
<path d="M135.019 14.5593C135.909 15.037 136.604 15.7317 137.125 16.6436C137.624 17.5554 137.885 18.6844 137.885 19.987V28.4542H134.932V20.4212C134.932 19.1403 134.606 18.1416 133.977 17.4686C133.325 16.7738 132.457 16.4482 131.35 16.4482C130.243 16.4482 129.352 16.7956 128.701 17.4686C128.05 18.1633 127.724 19.1403 127.724 20.4212V28.4542H124.75V14.0817H127.724V15.7317C128.202 15.1455 128.831 14.6896 129.591 14.3422C130.351 14.0166 131.154 13.8429 132.001 13.8429C133.108 13.8429 134.129 14.0817 135.019 14.5593Z" fill="#29313D" fillOpacity="0.8"/>
<path d="M154.71 22.3753H143.746C143.833 23.526 144.268 24.4379 145.027 25.1326C145.787 25.8273 146.721 26.1747 147.85 26.1747C149.456 26.1747 150.585 25.5017 151.237 24.1773H154.45C154.016 25.5017 153.234 26.5872 152.083 27.4122C150.954 28.2589 149.543 28.6714 147.85 28.6714C146.482 28.6714 145.245 28.3675 144.159 27.7379C143.073 27.13 142.227 26.2616 141.597 25.1326C140.968 24.0036 140.664 22.7227 140.664 21.2464C140.664 19.7701 140.968 18.4674 141.554 17.3602C142.162 16.2312 142.987 15.3845 144.072 14.7766C145.158 14.1687 146.395 13.8647 147.806 13.8647C149.152 13.8647 150.368 14.1687 151.432 14.7549C152.496 15.3411 153.321 16.1661 153.907 17.2516C154.493 18.3154 154.797 19.553 154.797 20.9424C154.819 21.4418 154.776 21.9194 154.71 22.3753ZM151.714 19.9655C151.693 18.8799 151.302 17.9898 150.542 17.3385C149.782 16.6871 148.827 16.3398 147.698 16.3398C146.677 16.3398 145.787 16.6654 145.071 17.3167C144.333 17.9681 143.898 18.8582 143.768 19.9655H151.714Z" fill="#29313D" fillOpacity="0.8"/>
</g>
<defs>
<clipPath id="clip0_3048_82">
<rect width="154.819" height="43.8914" fill="white"/>
</clipPath>
</defs>
</svg>
