<svg width="174" height="41" viewBox="0 0 174 41" fill="none" xmlns="http://www.w3.org/2000/svg">
<g clipPath="url(#clip0_3048_95)">
<path fillRule="evenodd" clipRule="evenodd" d="M5.58442 -3.22217C5.58442 1.73517 1.57636 5.74324 -3.38098 5.74324V12.2827C5.18362 12.2827 12.1239 5.34243 12.1239 -3.22217H5.58442ZM21.9331 19.9613C20.6674 21.7333 19.254 23.3576 17.693 24.8554C11.8286 29.2853 4.52967 31.9011 -3.38098 31.9011V38.3984L-2.70594 38.4406C6.55479 38.2929 15.0772 35.1287 21.912 29.876C28.7679 35.1287 37.2903 38.2929 46.5299 38.4406L47.2472 38.4195V31.9011C39.3365 31.9011 32.0376 29.2853 26.1732 24.8765C24.6122 23.3787 23.1988 21.7333 21.9331 19.9613ZM21.5534 10.7639C21.68 10.5318 21.8065 10.2998 21.9331 10.0677C22.0597 10.2998 22.1862 10.5318 22.3128 10.7639C27.2069 19.4761 36.552 25.3617 47.2472 25.3617V18.8222C35.0753 18.8222 25.2028 8.94969 25.2028 -3.22217H18.6634C18.6634 1.73517 17.0179 6.3128 14.2756 9.98335C10.2464 15.3626 3.83353 18.8222 -3.38098 18.8222V25.3617C4.67733 25.3617 11.9762 22.0286 17.1656 16.6494C18.8743 14.8985 20.351 12.9156 21.5534 10.7639ZM31.7423 -3.22217C31.7423 5.34243 38.6826 12.2827 47.2472 12.2827V5.74324C42.2898 5.74324 38.2818 1.73517 38.2818 -3.22217H31.7423Z" fill="#29313D" fillOpacity="0.8"/>
<path d="M78.6156 32.0911L72.5402 21.5436H69.2283V32.0911H64.9038V5.70117H74.0169C76.042 5.70117 77.7507 6.05979 79.1641 6.75593C80.5775 7.45206 81.6111 8.42243 82.3072 9.60376C83.0034 10.7851 83.362 12.1141 83.362 13.5907C83.362 15.3205 82.8557 16.8816 81.8643 18.2738C80.8728 19.6872 79.3328 20.6365 77.2444 21.1428L83.7839 32.07H78.6156V32.0911ZM69.2494 18.084H74.038C75.6623 18.084 76.8858 17.6832 77.7085 16.8605C78.5312 16.0588 78.932 14.9619 78.932 13.5907C78.932 12.2195 78.5312 11.1648 77.7085 10.3843C76.9069 9.60376 75.6623 9.22405 74.0169 9.22405H69.2283V18.084H69.2494Z" fill="#29313D" fillOpacity="0.8"/>
<path d="M89.1421 7.59952C88.6147 7.07214 88.3405 6.41819 88.3405 5.61658C88.3405 4.81497 88.6147 4.18212 89.1421 3.63364C89.6694 3.08517 90.3234 2.83203 91.125 2.83203C91.8844 2.83203 92.5384 3.10627 93.0657 3.63364C93.5931 4.16102 93.8673 4.81497 93.8673 5.61658C93.8673 6.41819 93.5931 7.05104 93.0657 7.59952C92.5384 8.14799 91.8844 8.40113 91.125 8.40113C90.3234 8.40113 89.6694 8.12689 89.1421 7.59952ZM93.2345 11.1646V32.0909H88.91V11.1646H93.2345Z" fill="#29313D" fillOpacity="0.8"/>
<path d="M113.908 11.8608C115.216 12.5358 116.228 13.5484 116.966 14.8985C117.705 16.2486 118.063 17.8518 118.063 19.7504V32.091H113.781V20.4043C113.781 18.5268 113.317 17.0924 112.368 16.1009C111.44 15.1094 110.153 14.6032 108.528 14.6032C106.904 14.6032 105.617 15.1094 104.668 16.1009C103.719 17.0924 103.234 18.5268 103.234 20.4043V32.091H98.9302V11.1647H103.255V13.5484C103.972 12.6835 104.879 12.0085 105.976 11.5444C107.073 11.0803 108.254 10.8271 109.499 10.8271C111.123 10.8271 112.6 11.1647 113.908 11.8608Z" fill="#29313D" fillOpacity="0.8"/>
<path d="M132.345 14.7088H128.463V32.0911H124.097V14.7088H121.628V11.1648H124.097V9.68813C124.097 7.28329 124.729 5.5324 126.016 4.43545C127.303 3.33851 129.307 2.79004 132.028 2.79004V6.3973C130.72 6.3973 129.792 6.65044 129.265 7.13562C128.737 7.62081 128.463 8.48571 128.463 9.68813V11.1648H132.345V14.7088V14.7088Z" fill="#29313D" fillOpacity="0.8"/>
<path d="M136.057 15.9533C136.922 14.3289 138.125 13.0632 139.623 12.1772C141.12 11.2912 142.787 10.8271 144.622 10.8271C146.267 10.8271 147.702 11.1436 148.925 11.7975C150.149 12.4515 151.14 13.2531 151.879 14.2024V11.1647H156.245V32.091H151.879V28.9689C151.14 29.9604 150.149 30.7831 148.883 31.437C147.618 32.091 146.183 32.4285 144.559 32.4285C142.766 32.4285 141.12 31.9644 139.623 31.0362C138.125 30.108 136.943 28.8212 136.079 27.1547C135.214 25.4882 134.771 23.6108 134.771 21.5223C134.771 19.4339 135.171 17.5776 136.057 15.9533ZM150.972 17.8518C150.381 16.7971 149.6 15.9743 148.63 15.4259C147.66 14.8774 146.626 14.5821 145.508 14.5821C144.39 14.5821 143.356 14.8563 142.386 15.4048C141.437 15.9533 140.677 16.7338 140.065 17.7885C139.475 18.8433 139.18 20.0879 139.18 21.5223C139.18 22.9568 139.475 24.2225 140.065 25.3195C140.656 26.4164 141.437 27.2391 142.428 27.8087C143.42 28.3782 144.432 28.6525 145.529 28.6525C146.647 28.6525 147.681 28.3782 148.651 27.8087C149.622 27.2602 150.402 26.4375 150.993 25.3617C151.583 24.2858 151.879 23.0201 151.879 21.5856C151.858 20.1723 151.562 18.9066 150.972 17.8518Z" fill="#29313D" fillOpacity="0.8"/>
<path d="M166.245 3.99268V32.0913H161.92V3.99268H166.245Z" fill="#29313D" fillOpacity="0.8"/>
<path d="M176.286 3.99268V32.0913H171.961V3.99268H176.286Z" fill="#29313D" fillOpacity="0.8"/>
</g>
<defs>
<clipPath id="clip0_3048_95">
<rect width="173.905" height="40.2253" fill="white"/>
</clipPath>
</defs>
</svg>
