<svg width="166" height="34" viewBox="0 0 166 34" fill="none" xmlns="http://www.w3.org/2000/svg">
<g clipPath="url(#clip0_3048_135)">
<path fillRule="evenodd" clipRule="evenodd" d="M37.3649 13.1124L34.1726 16.2917L34.1892 16.4564C34.2553 17.5107 34.1561 18.5485 33.9245 19.5698C33.6929 20.5746 33.3125 21.563 32.7998 22.469L32.6343 22.782L35.8432 24.6269L36.0251 24.314C36.9349 22.7161 37.5138 20.9535 37.7784 19.1579C38.0265 17.3624 37.9604 15.5339 37.5303 13.7548L37.3649 13.1124ZM38.7047 3.26163L23.1567 18.7461L7.60864 3.26163L7.37708 3.55814C4.49904 6.86919 2.82845 10.9215 2.43148 15.0891C2.01797 19.2568 2.87807 23.5562 5.04487 27.3614L5.22682 27.6744L8.46875 25.813L8.27026 25.5C6.84778 22.9797 6.12 20.1957 6.07038 17.4118C6.0373 14.6114 6.68238 11.8275 8.0387 9.27423L8.15448 9.06008C10.3047 11.2016 12.455 13.343 14.6053 15.468L14.5887 15.5669C14.3406 16.9671 14.4398 18.4002 14.8534 19.7345C15.2669 21.0523 16.0112 22.2878 17.0202 23.2926L17.1856 23.4574L11.9422 26.4719L12.24 26.8014C12.6204 27.2297 13.0339 27.6415 13.464 28.0204C16.2262 30.4583 19.6997 31.6773 23.1732 31.6773C26.6467 31.6773 30.1202 30.4419 32.8659 28.0039C33.296 27.625 33.6929 27.2297 34.0899 26.7849L34.3876 26.4554L29.1774 23.4574L29.3428 23.2926C30.3518 22.2878 31.0795 21.0688 31.5096 19.7345C31.9231 18.4002 32.0389 16.9835 31.7742 15.5669L31.7412 15.4845L38.1258 9.12597L38.2085 9.0436L39.2671 11.2345L39.2505 11.251L39.3167 11.4651C40.1272 13.7713 40.4249 16.2093 40.2099 18.5979C39.9949 21.0029 39.2836 23.3421 38.0762 25.4835L37.8942 25.7965L41.1361 27.6744L41.3181 27.3614C43.4849 23.5562 44.3284 19.2568 43.9315 15.0891C43.518 10.9215 41.8474 6.88566 38.9859 3.55814L38.7047 3.26163ZM8.51837 19.1415C8.78302 20.9535 9.36193 22.7161 10.2717 24.3304L10.4536 24.6434L13.6955 22.782L13.5301 22.469C13.0174 21.563 12.6369 20.5746 12.4054 19.5698C12.1738 18.5485 12.0911 17.5107 12.1407 16.4564L12.1573 16.2917L8.91534 13.0795L8.76648 13.7054C8.33642 15.501 8.25372 17.3459 8.51837 19.1415ZM46.1975 14.7762C46.7599 20.2452 45.387 25.8954 41.9632 30.6231L41.8639 30.7548L36.4221 27.625L36.2236 27.8556C35.5124 28.7122 34.7515 29.47 33.941 30.1453C30.8314 32.7151 26.9941 34 23.1567 34C19.3193 34 15.4819 32.7316 12.3723 30.1618C11.5453 29.4864 10.7844 28.7287 10.0732 27.8721L9.87469 27.6415L4.46596 30.7548L4.36672 30.6231C0.926301 25.8789 -0.446557 20.2287 0.115818 14.7762C0.678194 9.32364 3.1758 4.0688 7.49286 0.11531L7.62518 0L23.1732 15.4845L38.7047 0L38.8205 0.11531C43.1375 4.05233 45.6351 9.32364 46.1975 14.7762Z" fill="#29313D" fillOpacity="0.8"/>
<path d="M60.8027 24.1327C59.6945 23.655 58.8179 22.9632 58.1893 22.0736C57.5608 21.1841 57.23 20.1463 57.23 18.9603H60.8689C60.9516 19.8498 61.2989 20.5746 61.9275 21.1512C62.556 21.7277 63.4327 22.0077 64.5574 22.0077C65.7318 22.0077 66.6415 21.7277 67.3031 21.1676C67.9647 20.6076 68.279 19.8827 68.279 18.9932C68.279 18.3014 68.0805 17.7413 67.667 17.2965C67.2535 16.8682 66.7573 16.5223 66.1453 16.2917C65.5333 16.061 64.7063 15.7975 63.6311 15.5174C62.2748 15.155 61.1832 14.7926 60.3396 14.4302C59.496 14.0678 58.7848 13.4913 58.1893 12.7335C57.5939 11.9593 57.2961 10.938 57.2961 9.6531C57.2961 8.46705 57.5939 7.42926 58.1893 6.53973C58.7848 5.65019 59.6118 4.9748 60.6869 4.49709C61.7621 4.01938 63.0026 3.78876 64.4085 3.78876C66.4099 3.78876 68.064 4.28294 69.3376 5.28779C70.6112 6.29263 71.3225 7.65988 71.4713 9.38953H67.7166C67.6505 8.63178 67.3031 7.98934 66.6415 7.46221C65.9799 6.93508 65.1198 6.65504 64.0447 6.65504C63.0688 6.65504 62.2748 6.90213 61.6628 7.39632C61.0508 7.8905 60.7366 8.59884 60.7366 9.53779C60.7366 10.1638 60.935 10.6909 61.3155 11.1027C61.6959 11.5145 62.1921 11.8275 62.7876 12.0581C63.383 12.2888 64.1935 12.5523 65.2356 12.8324C66.6084 13.2112 67.7166 13.5901 68.5767 13.9525C69.4368 14.3314 70.1812 14.9079 70.7766 15.6822C71.3886 16.4564 71.6863 17.5107 71.6863 18.812C71.6863 19.8663 71.4052 20.8546 70.8428 21.7771C70.2804 22.6996 69.4534 23.4574 68.3783 24.0174C67.3031 24.5775 66.013 24.8576 64.5574 24.8576C63.168 24.8576 61.9109 24.6105 60.8027 24.1327Z" fill="#29313D" fillOpacity="0.8"/>
<path d="M81.4618 8.81298C82.4542 8.30232 83.5789 8.03876 84.8195 8.03876C86.242 8.03876 87.5487 8.38469 88.7396 9.09302C89.9139 9.80135 90.8402 10.7733 91.5184 12.0417C92.1965 13.3101 92.5273 14.7597 92.5273 16.407C92.5273 18.0543 92.1965 19.5203 91.5184 20.8052C90.8402 22.1066 89.9139 23.1114 88.7396 23.8362C87.5652 24.561 86.2585 24.9235 84.8195 24.9235C83.5624 24.9235 82.4542 24.6764 81.4783 24.1657C80.5024 23.655 79.7085 23.0291 79.0965 22.2878V32.4351H75.7057V8.30232H79.0965V10.7074C79.6919 9.94961 80.4693 9.32364 81.4618 8.81298ZM88.3922 13.4748C87.9291 12.6512 87.3171 12.0252 86.5397 11.6134C85.7788 11.1851 84.9518 10.9709 84.0917 10.9709C83.2316 10.9709 82.4211 11.1851 81.6602 11.6298C80.8994 12.0746 80.2874 12.7006 79.8077 13.5242C79.3446 14.3479 79.113 15.3362 79.113 16.4564C79.113 17.5765 79.3446 18.5649 79.8077 19.405C80.2709 20.2452 80.8828 20.8876 81.6602 21.3159C82.4211 21.7442 83.2316 21.9748 84.0917 21.9748C84.9683 21.9748 85.7788 21.7607 86.5397 21.3159C87.3005 20.8711 87.9125 20.2287 88.3922 19.3721C88.8553 18.5155 89.0869 17.5271 89.0869 16.407C89.0869 15.2868 88.8553 14.2984 88.3922 13.4748Z" fill="#29313D" fillOpacity="0.8"/>
<path d="M96.0835 5.5184C95.67 5.10658 95.455 4.59592 95.455 3.96995C95.455 3.34398 95.67 2.8498 96.0835 2.4215C96.497 1.99321 97.0098 1.79553 97.6383 1.79553C98.2338 1.79553 98.7465 2.00968 99.16 2.4215C99.5735 2.83332 99.7886 3.34398 99.7886 3.96995C99.7886 4.59592 99.5735 5.10658 99.16 5.5184C98.7465 5.93022 98.2338 6.14437 97.6383 6.14437C97.0263 6.14437 96.497 5.93022 96.0835 5.5184ZM99.3089 8.30231V24.6434H95.9181V8.30231H99.3089Z" fill="#29313D" fillOpacity="0.8"/>
<path d="M103.659 12.0417C104.337 10.7732 105.28 9.78487 106.454 9.09301C107.629 8.40115 108.952 8.03875 110.391 8.03875C111.466 8.03875 112.525 8.26937 113.567 8.73061C114.609 9.19185 115.436 9.81782 116.048 10.5756V2.70154H119.472V24.6434H116.048V22.1889C115.485 22.9796 114.725 23.6386 113.732 24.1492C112.756 24.6599 111.615 24.9234 110.358 24.9234C108.935 24.9234 107.629 24.561 106.438 23.8362C105.263 23.1114 104.321 22.1066 103.642 20.8052C102.964 19.5039 102.617 18.0378 102.617 16.407C102.617 14.7762 102.981 13.3101 103.659 12.0417ZM115.37 13.5242C114.907 12.7006 114.295 12.0581 113.534 11.6298C112.773 11.2015 111.962 10.9709 111.086 10.9709C110.209 10.9709 109.399 11.1851 108.638 11.6134C107.877 12.0417 107.281 12.6676 106.802 13.4748C106.339 14.2984 106.107 15.2703 106.107 16.3905C106.107 17.5106 106.339 18.499 106.802 19.3556C107.265 20.2122 107.877 20.8546 108.654 21.2994C109.432 21.7442 110.226 21.9583 111.086 21.9583C111.962 21.9583 112.773 21.7442 113.534 21.2994C114.295 20.8711 114.907 20.2287 115.37 19.3886C115.833 18.5484 116.064 17.5601 116.064 16.4399C116.064 15.3362 115.833 14.3479 115.37 13.5242Z" fill="#29313D" fillOpacity="0.8"/>
<path d="M138.874 17.7413H126.336C126.435 19.0426 126.915 20.0969 127.792 20.8876C128.668 21.6783 129.743 22.0736 131 22.0736C132.82 22.0736 134.11 21.3159 134.871 19.7839H138.526C138.03 21.2829 137.137 22.5184 135.83 23.4738C134.524 24.4293 132.919 24.907 131 24.907C129.429 24.907 128.023 24.561 126.783 23.8527C125.542 23.1444 124.566 22.156 123.871 20.8876C123.16 19.6192 122.813 18.1366 122.813 16.4564C122.813 14.7762 123.16 13.2936 123.838 12.0252C124.517 10.7568 125.492 9.76841 126.733 9.07655C127.973 8.38469 129.396 8.03876 131 8.03876C132.555 8.03876 133.928 8.36821 135.136 9.0436C136.343 9.71899 137.286 10.6579 137.964 11.8769C138.642 13.0959 138.973 14.4961 138.973 16.0775C138.989 16.687 138.956 17.2471 138.874 17.7413ZM135.45 15.0068C135.433 13.7548 134.987 12.7665 134.11 12.0087C133.233 11.251 132.158 10.8886 130.868 10.8886C129.694 10.8886 128.701 11.2674 127.858 12.0087C127.031 12.75 126.534 13.7548 126.369 15.0233H135.45V15.0068Z" fill="#29313D" fillOpacity="0.8"/>
<path d="M147.706 8.73062C148.533 8.26938 149.509 8.03876 150.634 8.03876V11.531H149.774C148.451 11.531 147.442 11.8605 146.747 12.5359C146.069 13.2112 145.721 14.3808 145.721 16.0281V24.6269H142.331V8.30232H145.721V10.6744C146.218 9.85077 146.879 9.20833 147.706 8.73062Z" fill="#29313D" fillOpacity="0.8"/>
<path d="M156.241 24.2151C155.216 23.7539 154.405 23.1114 153.81 22.3207C153.214 21.5136 152.9 20.624 152.85 19.6357H156.357C156.423 20.3275 156.754 20.9041 157.349 21.3653C157.961 21.8265 158.706 22.0572 159.632 22.0572C160.591 22.0572 161.319 21.876 161.848 21.5136C162.378 21.1512 162.642 20.6734 162.642 20.1134C162.642 19.5039 162.345 19.0426 161.766 18.7461C161.187 18.4496 160.244 18.1202 158.987 17.7742C157.763 17.4448 156.754 17.1153 155.976 16.8023C155.199 16.4893 154.537 15.9952 153.959 15.3527C153.396 14.6938 153.115 13.8372 153.115 12.7665C153.115 11.8934 153.38 11.1027 153.892 10.3779C154.405 9.6531 155.149 9.09302 156.109 8.66473C157.068 8.23643 158.176 8.03876 159.433 8.03876C161.303 8.03876 162.808 8.51647 163.949 9.43895C165.09 10.3779 165.702 11.6628 165.785 13.2771H162.394C162.328 12.5523 162.03 11.9593 161.501 11.531C160.972 11.1027 160.244 10.8721 159.334 10.8721C158.441 10.8721 157.763 11.0368 157.283 11.3827C156.803 11.7287 156.572 12.157 156.572 12.7171C156.572 13.1453 156.737 13.5242 157.052 13.8207C157.366 14.1172 157.763 14.3479 158.209 14.5126C158.673 14.6773 159.334 14.8915 160.227 15.155C161.418 15.468 162.394 15.7975 163.155 16.1105C163.916 16.4399 164.578 16.9176 165.14 17.5436C165.702 18.1696 165.983 19.0097 166 20.064C166 20.9864 165.735 21.8265 165.223 22.5514C164.71 23.2762 163.982 23.8527 163.039 24.2645C162.096 24.6764 160.988 24.8905 159.715 24.8905C158.424 24.907 157.267 24.6764 156.241 24.2151Z" fill="#29313D" fillOpacity="0.8"/>
</g>
<defs>
<clipPath id="clip0_3048_135">
<rect width="166" height="34" fill="white"/>
</clipPath>
</defs>
</svg>
