<svg width="227" height="46" viewBox="0 0 227 46" fill="none" xmlns="http://www.w3.org/2000/svg">
<g clipPath="url(#clip0_3048_124)">
<path fillRule="evenodd" clipRule="evenodd" d="M67.7879 5.66169H51.8232V43.7374C51.8232 45.2141 50.6259 46.3915 49.1691 46.3915C47.6924 46.3915 46.515 45.1941 46.515 43.7374V5.66169H30.5504V38.3892C30.5504 39.8659 31.7078 41.0832 33.2045 41.0832C34.6812 41.0832 35.8586 39.8859 35.8586 38.4291V11.0098H41.1868V38.4291C41.1868 42.8393 37.6147 46.4114 33.2045 46.4114C28.7943 46.4114 25.2222 42.8393 25.2222 38.4291V0.333496C41.1868 0.333496 57.1514 0.333496 73.1161 0.333496V38.4092C73.1161 42.8194 69.544 46.3915 65.1338 46.3915C60.7235 46.3915 57.1514 42.8194 57.1514 38.4092V10.9699H62.4796V38.3892C62.4796 39.8659 63.677 41.0433 65.1338 41.0433C66.6105 41.0433 67.7879 39.846 67.7879 38.3892V5.66169Z" fill="#29313D" fillOpacity="0.8"/>
<path d="M92.8324 9.79248V27.7926C92.8324 29.9279 93.3912 31.5443 94.5087 32.6219C95.6263 33.6995 97.2028 34.2383 99.1983 34.2383C101.234 34.2383 102.81 33.6995 103.928 32.6219C105.045 31.5443 105.604 29.9279 105.604 27.7926V9.79248H110.234V27.7128C110.234 30.0077 109.735 31.9634 108.737 33.5598C107.739 35.1563 106.402 36.3536 104.706 37.1319C103.03 37.9102 101.174 38.3093 99.1385 38.3093C97.103 38.3093 95.267 37.9102 93.5908 37.1319C91.9344 36.3536 90.5974 35.1563 89.6395 33.5598C88.6617 31.9634 88.1827 30.0077 88.1827 27.7128V9.79248H92.8324Z" fill="#29313D" fillOpacity="0.8"/>
<path d="M120.91 7.97656V38.03H116.281V7.97656H120.91Z" fill="#29313D" fillOpacity="0.8"/>
<path d="M126.857 20.7681C127.795 19.032 129.072 17.6949 130.669 16.7171C132.285 15.7592 134.061 15.2803 136.017 15.2803C137.773 15.2803 139.31 15.6195 140.627 16.318C141.944 17.0164 142.981 17.8745 143.78 18.8923V15.6395H148.449V38.0299H143.78V34.6973C143.001 35.7549 141.924 36.633 140.567 37.3314C139.21 38.0299 137.673 38.3891 135.937 38.3891C134.021 38.3891 132.245 37.8902 130.649 36.9124C129.052 35.9146 127.775 34.5376 126.857 32.7616C125.919 30.9855 125.46 28.9699 125.46 26.7349C125.46 24.4999 125.919 22.5043 126.857 20.7681ZM142.822 22.8036C142.183 21.6661 141.345 20.808 140.327 20.2094C139.29 19.6107 138.192 19.3113 136.995 19.3113C135.797 19.3113 134.7 19.6107 133.662 20.1894C132.624 20.7681 131.806 21.6262 131.168 22.7437C130.529 23.8613 130.21 25.1983 130.21 26.7549C130.21 28.3114 130.529 29.6484 131.168 30.8258C131.806 31.9833 132.644 32.8813 133.682 33.48C134.72 34.0986 135.837 34.3979 136.995 34.3979C138.192 34.3979 139.29 34.0986 140.327 33.4999C141.365 32.9012 142.183 32.0232 142.822 30.8857C143.46 29.7283 143.78 28.3912 143.78 26.8347C143.78 25.2781 143.46 23.9411 142.822 22.8036Z" fill="#29313D" fillOpacity="0.8"/>
<path d="M162.398 16.3181C163.775 15.6196 165.292 15.2804 166.968 15.2804C168.944 15.2804 170.74 15.7593 172.336 16.6972C173.933 17.6551 175.19 18.9922 176.108 20.7483C177.026 22.5044 177.485 24.5 177.485 26.735C177.485 28.9701 177.026 30.9856 176.108 32.7617C175.19 34.5377 173.913 35.9147 172.316 36.9125C170.7 37.9103 168.924 38.3892 166.968 38.3892C165.232 38.3892 163.695 38.0499 162.358 37.3714C161.021 36.693 159.964 35.8349 159.166 34.7772V38.03H154.536V7.97656H159.166V18.9922C159.964 17.8946 161.041 17.0165 162.398 16.3181ZM171.817 22.7439C171.179 21.6263 170.341 20.7682 169.303 20.1895C168.265 19.6108 167.148 19.3115 165.95 19.3115C164.793 19.3115 163.676 19.6108 162.638 20.2095C161.6 20.8081 160.762 21.6662 160.123 22.8037C159.485 23.9412 159.166 25.2782 159.166 26.8348C159.166 28.3714 159.485 29.7284 160.123 30.8858C160.762 32.0433 161.6 32.9014 162.638 33.5C163.676 34.0987 164.793 34.398 165.95 34.398C167.148 34.398 168.265 34.0987 169.303 33.4801C170.341 32.8614 171.179 31.9834 171.817 30.8259C172.456 29.6685 172.775 28.3115 172.775 26.755C172.775 25.1984 172.456 23.8614 171.817 22.7439Z" fill="#29313D" fillOpacity="0.8"/>
<path d="M185.467 37.4512C184.07 36.8126 182.973 35.9545 182.155 34.8569C181.336 33.7593 180.917 32.542 180.857 31.185H185.647C185.727 32.1429 186.186 32.9212 187.004 33.5598C187.822 34.1984 188.86 34.5177 190.117 34.5177C191.414 34.5177 192.432 34.2582 193.15 33.7593C193.869 33.2604 194.228 32.6219 194.228 31.8236C194.228 30.9855 193.829 30.3669 193.03 29.9478C192.232 29.5487 190.955 29.0897 189.239 28.6107C187.563 28.1518 186.186 27.6928 185.128 27.2737C184.07 26.8347 183.152 26.1761 182.394 25.2781C181.616 24.3801 181.237 23.2027 181.237 21.7459C181.237 20.5486 181.596 19.471 182.294 18.4732C182.993 17.4754 184.01 16.6971 185.328 16.1384C186.645 15.5796 188.161 15.2803 189.857 15.2803C192.412 15.2803 194.447 15.9189 196.004 17.216C197.56 18.5131 198.399 20.2493 198.498 22.4843H193.869C193.789 21.4865 193.39 20.6883 192.651 20.0896C191.913 19.4909 190.935 19.1916 189.678 19.1916C188.461 19.1916 187.523 19.4311 186.884 19.8901C186.226 20.349 185.906 20.9677 185.906 21.726C185.906 22.3247 186.126 22.8236 186.565 23.2227C187.004 23.6218 187.523 23.9411 188.141 24.1806C188.76 24.42 189.678 24.6994 190.895 25.0586C192.512 25.4976 193.849 25.9367 194.906 26.3757C195.944 26.8147 196.842 27.4733 197.6 28.3513C198.359 29.2094 198.758 30.3669 198.778 31.8037C198.778 33.0808 198.419 34.2183 197.72 35.2161C197.022 36.2139 196.024 37.0121 194.727 37.5709C193.43 38.1297 191.933 38.429 190.197 38.429C188.441 38.3891 186.864 38.0897 185.467 37.4512Z" fill="#29313D" fillOpacity="0.8"/>
</g>
<defs>
<clipPath id="clip0_3048_124">
<rect width="227" height="46" fill="white"/>
</clipPath>
</defs>
</svg>
