<svg width="203" height="51" viewBox="0 0 203 51" fill="none" xmlns="http://www.w3.org/2000/svg">
<g clipPath="url(#clip0_3048_68)">
<path fillRule="evenodd" clipRule="evenodd" d="M26.1076 40.1529L21.9767 44.2839C25.2263 46.1841 28.9993 47.2582 33.0476 47.2582C37.0684 47.2582 40.8689 46.1841 44.1186 44.2839L39.9876 40.1529C37.8946 41.1443 35.5262 41.6951 33.0476 41.6951C30.5691 41.6676 28.2282 41.1168 26.1076 40.1529ZM11.6768 0L23.6015 11.9247C18.066 15.8353 15.5048 22.7754 17.1572 29.3298C17.4051 30.3488 17.7631 31.3127 18.2037 32.249L14.0728 36.38C13.577 35.5262 13.1364 34.645 12.7509 33.7362C9.74902 26.4932 10.8782 18.0936 15.6701 11.8972L11.7043 7.93144C3.4975 17.9834 3.4975 32.6621 11.7043 42.7141C18.8096 35.6089 25.9424 28.4761 33.0476 21.3708C40.1529 28.4761 47.2857 35.6089 54.3909 42.7141C62.5978 32.6621 62.5978 17.9834 54.3909 7.93144L50.4252 11.8972C55.2446 18.1211 56.3462 26.4932 53.3169 33.7362C52.9313 34.645 52.4907 35.5262 51.995 36.38L47.864 32.249C48.3046 31.3127 48.6351 30.3488 48.9105 29.3298C50.5629 22.7478 48.0017 15.8353 42.4662 11.9247L54.4185 0C69.9509 13.1089 70.061 37.3989 54.4185 50.618C47.2857 43.4852 40.1804 36.38 33.0476 29.2472C25.9148 36.38 18.8096 43.4852 11.6768 50.618C-3.96576 37.4265 -3.82806 13.1089 11.6768 0Z" fill="#29313D" fillOpacity="0.8"/>
<path d="M90.6056 32.7447C87.9618 25.3366 85.2354 18.011 82.3988 10.713C83.4178 10.7405 84.2715 10.7405 84.9049 10.7405C85.621 10.7405 86.4471 10.7405 87.411 10.713L91.9275 24.0697L93.8278 29.3298C94.2409 28.5312 94.8468 27.2643 95.673 25.5018C96.4991 23.7393 97.0775 22.4449 97.4355 21.6187C96.9398 20.104 96.3064 18.2864 95.5628 16.1383C94.8192 13.9902 94.1307 12.2001 93.5799 10.713C94.4887 10.7405 95.2874 10.7405 95.9759 10.7405C96.747 10.7405 97.5457 10.7405 98.3718 10.713C98.8676 12.6683 99.4459 14.5961 100.052 16.4963C100.961 14.541 101.787 12.6132 102.53 10.713C103.467 10.7405 104.21 10.7405 104.789 10.7405C105.45 10.7405 106.193 10.7405 107.047 10.713C106.358 12.09 105.505 13.8525 104.486 16.0006C103.467 18.1487 102.64 19.9388 102.035 21.3433C102.282 22.1144 102.723 23.4363 103.357 25.2815C104.017 27.1266 104.486 28.4485 104.789 29.1921L109.112 19.9663L112.252 13.0538L113.271 10.6854C114.317 10.713 115.144 10.713 115.749 10.713C116.438 10.713 117.264 10.713 118.256 10.6854L115.226 16.7166L108.892 29.7154L107.46 32.7172C106.303 32.6897 105.312 32.6897 104.513 32.6897C103.659 32.6897 102.668 32.6897 101.539 32.7172C100.905 30.5416 100.189 28.421 99.4459 26.328C98.4269 28.421 97.463 30.5416 96.5542 32.7172C95.3976 32.6897 94.4061 32.6897 93.5799 32.6897C92.6987 32.7172 91.7072 32.7447 90.6056 32.7447Z" fill="#29313D" fillOpacity="0.8"/>
<path d="M119.908 19.9388C120.046 19.1676 120.156 18.6168 120.183 18.3139C120.211 18.011 120.294 17.5153 120.376 16.8818C121.836 16.5514 123.13 16.3035 124.259 16.1658C125.388 16.0281 126.462 15.9455 127.509 15.9455C128.693 15.9455 129.767 16.0832 130.759 16.3586C131.75 16.634 132.521 17.0746 133.072 17.6805C133.623 18.2864 133.898 19.1401 133.898 20.2692C133.898 20.8751 133.816 22.4449 133.65 24.951C133.485 27.4571 133.375 30.0458 133.347 32.7447C132.521 32.7172 131.778 32.7172 131.089 32.7172C130.428 32.7172 129.657 32.7172 128.776 32.7447C128.913 31.4504 129.024 29.9357 129.106 28.2282L129.327 24.2074C128.913 24.4828 128.611 24.6756 128.39 24.7857C128.17 24.8959 127.922 25.0061 127.674 25.0887C127.399 25.1713 126.931 25.309 126.242 25.5018C125.554 25.6946 125.03 25.8598 124.617 25.9975C124.204 26.1352 123.846 26.3004 123.516 26.4657C123.185 26.6309 122.91 26.8512 122.689 27.0715C122.469 27.2919 122.304 27.5122 122.194 27.76C122.084 28.0079 122.029 28.2558 122.029 28.5311C122.029 28.9718 122.166 29.3849 122.414 29.6878C122.662 29.9908 123.02 30.2386 123.406 30.3763C123.791 30.514 124.259 30.5691 124.81 30.5691C125.141 30.5691 125.526 30.5415 125.912 30.4865C126.297 30.4314 126.82 30.2937 127.454 30.0734C127.234 30.6792 126.958 31.5881 126.655 32.8273C125.884 32.965 125.278 33.0477 124.838 33.0752C124.397 33.1027 123.956 33.1303 123.571 33.1303C122.221 33.1303 121.092 32.9375 120.238 32.5795C119.385 32.2215 118.724 31.6431 118.311 30.8445C117.898 30.0458 117.677 29.2472 117.677 28.4485C117.677 27.9804 117.76 27.5397 117.925 27.0715C118.09 26.6034 118.311 26.2178 118.641 25.8323C118.972 25.4467 119.357 25.0887 119.853 24.7307C120.349 24.3727 121.065 24.0422 122.001 23.7117C122.937 23.3812 124.177 23.0507 125.719 22.7203C126.132 22.6376 126.545 22.5275 126.986 22.4173C127.426 22.3072 127.784 22.1695 128.032 22.0593C128.28 21.9492 128.528 21.7839 128.721 21.5911C128.913 21.3984 129.051 21.2056 129.161 21.0128C129.271 20.82 129.299 20.5997 129.299 20.3794C129.299 19.9663 129.161 19.6083 128.886 19.3053C128.611 19.0024 128.252 18.8096 127.812 18.6995C127.371 18.5893 126.903 18.5342 126.38 18.5342C124.452 18.5342 122.276 19.0024 119.908 19.9388Z" fill="#29313D" fillOpacity="0.8"/>
<path d="M137.01 40.1529C137.286 37.1511 137.533 33.268 137.726 28.4761C137.946 23.7117 138.057 19.8286 138.057 16.8543C140.095 16.4963 141.692 16.2484 142.793 16.1383C143.923 16.0281 145.024 15.973 146.126 15.973C147.585 15.973 148.907 16.1383 150.119 16.4963C151.331 16.8268 152.295 17.4051 153.011 18.2313C153.727 19.0575 154.278 19.9663 154.636 21.0403C154.994 22.1144 155.159 23.216 155.159 24.3726C155.159 25.5568 154.994 26.686 154.663 27.76C154.333 28.8341 153.809 29.8255 153.121 30.6792C152.432 31.533 151.634 32.1664 150.725 32.5795C149.816 32.965 148.825 33.1578 147.751 33.1578C147.117 33.1578 146.484 33.0752 145.878 32.9375C145.272 32.7998 144.721 32.5795 144.253 32.3316C143.785 32.0838 143.399 31.8359 143.096 31.588C142.793 31.3402 142.408 30.9546 141.94 30.4589L141.692 37.4815L141.719 38.5556C141.719 38.6933 141.692 39.2441 141.692 40.1804C140.7 40.1804 139.929 40.1529 139.406 40.1529H137.01ZM142.518 19.8286C142.435 20.4069 142.38 20.9026 142.353 21.3157L142.243 23.1058C142.188 23.8769 142.188 24.4553 142.188 24.8133C142.188 25.4742 142.243 26.1076 142.38 26.686C142.518 27.2918 142.793 27.8426 143.179 28.3384C143.565 28.8341 144.06 29.2196 144.611 29.495C145.162 29.7704 145.74 29.8806 146.319 29.8806C147.145 29.8806 147.888 29.6603 148.549 29.1921C149.21 28.7239 149.733 28.0354 150.119 27.1266C150.505 26.2178 150.67 25.2539 150.67 24.2349C150.67 23.1058 150.477 22.1419 150.064 21.3708C149.651 20.5997 149.128 20.0214 148.439 19.6633C147.751 19.3053 146.98 19.1401 146.126 19.1401C145.052 19.1952 143.812 19.3879 142.518 19.8286Z" fill="#29313D" fillOpacity="0.8"/>
<path d="M157.94 32.7447L158.271 28.5587L158.629 20.5171L158.794 13.6321C158.822 12.3929 158.822 11.429 158.822 10.7405C159.951 10.768 160.749 10.768 161.218 10.768C161.768 10.768 162.512 10.768 163.421 10.7405L163.09 15.973L162.705 24.3451L162.539 30.5966L162.512 32.7723C161.548 32.7447 160.804 32.7447 160.254 32.7447C159.675 32.7172 158.904 32.7447 157.94 32.7447ZM163.09 23.574L166.367 19.5807C166.643 19.2503 166.973 18.8096 167.359 18.3139C167.744 17.8182 168.24 17.1572 168.846 16.3586C169.975 16.3861 170.774 16.3861 171.297 16.3861C172.013 16.3861 172.894 16.3861 173.996 16.3586L168.681 22.4449L167.717 23.6015C168.516 24.8408 170.691 27.8977 174.271 32.7723C173.307 32.7447 172.481 32.7447 171.793 32.7447C171.104 32.7447 170.251 32.7447 169.232 32.7723C168.598 31.7533 168.102 30.9271 167.717 30.3212C167.331 29.7153 166.973 29.1645 166.615 28.6964L163.861 24.7857C163.779 24.648 163.503 24.2349 163.09 23.574Z" fill="#29313D" fillOpacity="0.8"/>
<path d="M176.089 32.7447C176.254 31.1199 176.364 29.7704 176.419 28.6964C176.53 26.9889 176.612 24.9785 176.695 22.7478C176.777 20.5171 176.833 18.369 176.86 16.331C177.907 16.3586 178.705 16.3586 179.229 16.3586C179.697 16.3586 180.495 16.3586 181.569 16.331C181.432 18.2038 181.294 19.9938 181.211 21.7013C181.156 23.4088 181.074 25.3365 181.046 27.5397C181.019 29.7429 180.991 31.4779 180.991 32.7447C180 32.7172 179.229 32.7172 178.623 32.7172C178.072 32.7172 177.218 32.7447 176.089 32.7447ZM176.97 13.522C177.025 12.4204 177.025 11.5667 177.025 10.9608V10.4651C178.017 10.4926 178.788 10.4926 179.421 10.4926C180.248 10.4926 181.046 10.4926 181.762 10.4651C181.735 10.7405 181.707 11.0434 181.707 11.3739L181.624 13.522C180.798 13.4945 180.055 13.4945 179.366 13.4945C178.678 13.4945 177.879 13.522 176.97 13.522Z" fill="#29313D" fillOpacity="0.8"/>
<path d="M201.563 32.7447C200.627 32.7172 199.883 32.7172 199.388 32.7172C198.754 32.7172 198.038 32.7172 197.212 32.7447L197.24 30.0734C196.937 30.514 196.661 30.8996 196.441 31.175C196.221 31.4504 195.918 31.7258 195.56 31.9736C195.202 32.2215 194.788 32.4418 194.375 32.607C193.962 32.7723 193.467 32.8824 192.888 32.9926C192.337 33.1027 191.759 33.1578 191.126 33.1578C189.914 33.1578 188.867 32.9926 187.986 32.6346C187.105 32.2766 186.389 31.7533 185.866 31.0373C185.342 30.3212 185.094 29.3023 185.094 27.9804V27.6499L185.342 23.4914L185.59 18.011C185.59 17.5703 185.618 17.0195 185.618 16.3586C186.637 16.3861 187.435 16.3861 188.014 16.3861C188.62 16.3861 189.363 16.3861 190.244 16.3586L189.721 23.7117C189.694 24.29 189.666 24.7582 189.639 25.1438C189.611 25.5293 189.611 25.8323 189.611 25.9975C189.611 26.7686 189.721 27.402 189.969 27.9253C190.217 28.4485 190.602 28.8341 191.181 29.0819C191.759 29.3573 192.365 29.495 193.026 29.495C193.659 29.495 194.238 29.3849 194.788 29.137C195.284 28.9167 195.725 28.6138 196.083 28.2282C196.441 27.8427 196.744 27.3194 196.992 26.6585C197.184 26.1903 197.322 25.5293 197.405 24.7031C197.487 24.1248 197.542 23.1058 197.625 21.6462C197.708 19.9112 197.763 18.1211 197.818 16.3311C198.892 16.3586 199.691 16.3586 200.269 16.3586C200.902 16.3586 201.618 16.3586 202.417 16.3311C202.279 17.8733 202.142 19.8011 202.004 22.0869C201.866 24.3727 201.756 26.3004 201.728 27.7876C201.618 29.3298 201.591 30.9547 201.563 32.7447Z" fill="#29313D" fillOpacity="0.8"/>
</g>
<defs>
<clipPath id="clip0_3048_68">
<rect width="202.362" height="50.618" fill="white"/>
</clipPath>
</defs>
</svg>
